<svg id="Group_3" data-name="Group 3" xmlns="http://www.w3.org/2000/svg" width="31.103" height="30.27" viewBox="0 0 31.103 30.27">
  <defs>
    <style>
      .cls-1 {
        fill: #fff;
      }
    </style>
  </defs>
  <path id="Path_3" data-name="Path 3" class="cls-1" d="M99.9,350.322a3.247,3.247,0,1,0,3.247,3.247A3.247,3.247,0,0,0,99.9,350.322Zm0,5.051a1.8,1.8,0,1,1,1.8-1.8A1.8,1.8,0,0,1,99.9,355.373Z" transform="translate(-89.978 -326.546)"/>
  <path id="Path_4" data-name="Path 4" class="cls-1" d="M298.431,350.322a3.247,3.247,0,1,0,3.247,3.247A3.247,3.247,0,0,0,298.431,350.322Zm0,5.051a1.8,1.8,0,1,1,1.8-1.8A1.8,1.8,0,0,1,298.431,355.373Z" transform="translate(-274.799 -326.546)"/>
  <path id="Path_5" data-name="Path 5" class="cls-1" d="M30.956,10.863a.9.9,0,0,0-.577-.289L6.891,10.249,6.242,8.265a3.319,3.319,0,0,0-3.1-2.237H.722a.722.722,0,1,0,0,1.443H3.139A1.876,1.876,0,0,1,4.871,8.734L9.453,22.552l-.361.83a3.464,3.464,0,0,0,.325,3.139,3.355,3.355,0,0,0,2.706,1.515H26.157a.722.722,0,0,0,0-1.443H12.123a1.84,1.84,0,0,1-1.515-.866A1.984,1.984,0,0,1,10.427,24l.289-.649L25.9,21.758a3.969,3.969,0,0,0,3.428-3.031l1.732-7.252A.613.613,0,0,0,30.956,10.863ZM27.925,18.4a2.453,2.453,0,0,1-2.2,1.912L10.715,21.867,7.36,11.692l22.116.325Z" transform="translate(0 -6.028)"/>
</svg>
